<svg width="25" height="24" viewBox="0 0 25 24" fill="none" xmlns="http://www.w3.org/2000/svg">
<path opacity="0.4" d="M6.947 22C4.496 22 2.5 19.9698 2.5 17.4755V12.5144C2.5 10.0252 4.49 8 6.937 8L18.053 8C20.505 8 22.5 10.0302 22.5 12.5256V17.4846C22.5 19.9748 20.51 22 18.063 22H17.123H6.947Z" fill="#009EE3"/>
<path d="M11.9548 2.22103L9.0458 5.06682C8.7458 5.36094 8.7458 5.83427 9.0478 6.12742C9.3498 6.41959 9.8368 6.41862 10.1368 6.12547L11.7298 4.56623V6.06119V14.4515C11.7298 14.8654 12.0748 15.2014 12.4998 15.2014C12.9258 15.2014 13.2698 14.8654 13.2698 14.4515V4.56623L14.8628 6.12547C15.1628 6.41862 15.6498 6.41959 15.9518 6.12742C16.1028 5.98036 16.1788 5.78849 16.1788 5.59566C16.1788 5.40477 16.1028 5.21291 15.9538 5.06682L13.0458 2.22103C12.9008 2.07981 12.7048 1.99995 12.4998 1.99995C12.2958 1.99995 12.0998 2.07981 11.9548 2.22103Z" fill="#009EE3"/>
</svg>
